# Blender v2.78 (sub 0) OBJ File: ''
# www.blender.org
o Icosphere
v -0.024331 -0.982924 0.016844
v -0.761970 -0.420303 -0.693392
v 0.182582 -0.483556 -0.945756
v 0.984289 -0.463296 0.117782
v 0.225453 -0.267498 0.919417
v -0.623677 -0.340012 0.474183
v -0.200447 0.327869 -0.829013
v 0.843211 0.230416 -0.410983
v 0.649930 0.301956 0.645588
v -0.274491 0.432566 0.879751
v -0.939408 0.423530 -0.177690
v -0.013058 0.978673 -0.005109
v 0.165183 -0.854192 -0.497503
v -0.447420 -0.848839 -0.330602
v -0.233335 -0.566404 -0.739075
v -0.648587 -0.788347 0.049102
v 0.454610 -0.826142 -0.033490
v 0.773935 -0.488067 -0.463587
v 0.243301 -0.832026 0.411011
v 0.630479 -0.501222 0.568255
v -0.135306 -0.662406 0.853419
v -0.933713 0.058761 -0.287552
v -0.997213 -0.063509 0.295630
v -0.129552 0.029921 -1.145258
v -0.577768 0.024529 -0.823035
v 0.699973 0.095888 -0.862892
v 0.876052 -0.021767 0.269845
v -0.586972 0.003086 0.804246
v -0.759701 0.397000 -0.475113
v 0.160526 0.588768 -0.711361
v 0.862778 0.474092 -0.029474
v -0.699439 0.504822 0.480198
v -0.061455 0.810357 -0.517777
v -0.516652 0.801035 -0.070449
v 0.425590 0.850701 -0.308973
v 0.277422 0.754222 0.647046
v -0.164113 0.850654 0.497548
vn -0.0820 -0.9593 -0.2703
vn -0.6714 -0.6996 -0.2443
vn 0.2964 -0.9465 -0.1277
vn 0.3213 -0.9365 0.1404
vn -0.2376 -0.8423 0.4838
vn -0.9456 -0.3249 -0.0166
vn -0.3036 -0.4997 -0.8112
vn 0.9392 -0.0659 -0.3370
vn 0.6223 -0.0899 0.7776
vn -0.7137 -0.4444 0.5413
vn -0.8145 0.1762 -0.5527
vn 0.3295 -0.1612 -0.9303
vn 0.9734 0.2260 0.0367
vn -0.6444 -0.4932 0.5844
vn -0.3851 0.5760 -0.7210
vn 0.5525 0.4836 -0.6788
vn 0.7159 0.5884 0.3758
vn -0.0949 0.6852 0.7221
vn -0.6797 0.7159 0.1595
vn -0.3450 0.9291 0.1330
vn -0.5301 0.8076 0.2585
vn -0.4487 0.6646 0.5974
vn 0.1144 0.9539 0.2773
vn 0.3713 0.9163 0.1500
vn 0.5784 0.7978 0.1702
vn 0.7314 0.5571 -0.3933
vn 0.0572 0.9469 -0.3163
vn 0.2058 0.7526 -0.6255
vn -0.1439 0.5654 -0.8122
vn -0.2881 0.9175 -0.2740
vn -0.4719 0.7493 -0.4646
vn -0.5523 0.7319 -0.3990
vn -0.8852 0.3740 0.2767
vn -0.7741 0.2118 0.5966
vn -0.6183 0.3239 0.7161
vn 0.2571 0.2367 0.9369
vn 0.2867 0.2331 0.9292
vn 0.9088 0.2332 0.3460
vn 0.9988 -0.0030 -0.0493
vn 0.5571 0.7309 -0.3942
vn 0.2393 0.5149 -0.8232
vn -0.2607 0.6728 -0.6923
vn -0.4167 0.5034 -0.7569
vn -0.8237 0.1160 -0.5550
vn -0.8413 0.1438 -0.5211
vn -0.1589 -0.0576 0.9856
vn -0.1496 -0.0285 0.9883
vn 0.8251 -0.0739 0.5602
vn 0.7871 -0.0194 0.6166
vn 0.9568 -0.0716 -0.2819
vn 0.5741 -0.4114 -0.7079
vn -0.4789 0.5828 -0.6565
vn -0.5283 -0.4133 -0.7417
vn -0.1445 -0.2212 -0.9645
vn -0.9944 0.0161 -0.1049
vn -0.9091 -0.3767 -0.1780
vn -0.6470 -0.5054 0.5709
vn -0.7138 -0.4606 0.5276
vn -0.1456 -0.9590 0.2431
vn 0.5041 -0.5691 0.6496
vn 0.2556 -0.6425 0.7224
vn 0.5648 -0.7838 0.2581
vn 0.4772 -0.8240 0.3054
vn 0.5904 -0.7868 -0.1801
vn 0.5076 -0.8192 -0.2671
vn 0.4501 -0.6967 -0.5586
vn -0.2978 -0.9546 -0.0057
vn -0.1634 -0.7572 -0.6324
vn -0.1757 -0.7642 -0.6205
vn -0.2560 -0.7271 -0.6370
s off
f 1//1 14//1 13//1
f 2//2 14//2 16//2
f 1//3 13//3 17//3
f 1//4 17//4 19//4
f 1//5 19//5 16//5
f 2//6 16//6 22//6
f 3//7 15//7 24//7
f 4//8 18//8 8//8
f 5//9 20//9 9//9
f 6//10 21//10 28//10
f 2//11 22//11 25//11
f 3//12 24//12 26//12
f 4//13 8//13 27//13
f 6//14 28//14 23//14
f 7//15 29//15 33//15
f 8//16 30//16 35//16
f 9//17 31//17 36//17
f 10//18 36//18 37//18
f 11//19 32//19 34//19
f 34//20 37//20 12//20
f 34//21 32//21 37//21
f 32//22 10//22 37//22
f 37//23 36//23 12//23
f 36//24 35//24 12//24
f 36//25 31//25 35//25
f 31//26 8//26 35//26
f 35//27 33//27 12//27
f 35//28 30//28 33//28
f 30//29 7//29 33//29
f 33//30 34//30 12//30
f 33//31 29//31 34//31
f 29//32 11//32 34//32
f 23//33 32//33 11//33
f 23//34 28//34 32//34
f 28//35 10//35 32//35
f 5//36 36//36 10//36
f 5//37 9//37 36//37
f 27//38 31//38 9//38
f 27//39 8//39 31//39
f 26//40 30//40 8//40
f 26//41 24//41 30//41
f 24//42 7//42 30//42
f 25//43 29//43 7//43
f 25//44 22//44 29//44
f 22//45 11//45 29//45
f 28//46 5//46 10//46
f 28//47 21//47 5//47
f 9//48 20//48 27//48
f 20//49 4//49 27//49
f 8//50 18//50 26//50
f 18//51 3//51 26//51
f 24//52 25//52 7//52
f 24//53 15//53 25//53
f 15//54 2//54 25//54
f 22//55 23//55 11//55
f 22//56 16//56 23//56
f 16//57 6//57 23//57
f 16//58 21//58 6//58
f 16//59 19//59 21//59
f 19//60 5//60 21//60
f 19//61 20//61 5//61
f 19//62 17//62 20//62
f 17//63 4//63 20//63
f 17//64 18//64 4//64
f 17//65 13//65 18//65
f 13//66 3//66 18//66
f 14//67 1//67 16//67
f 13//68 15//68 3//68
f 13//69 14//69 15//69
f 14//70 2//70 15//70
